<svg xmlns="http://www.w3.org/2000/svg" width="23" height="23" viewBox="0 0 23 23"><g><g><path fill="#7392b8" d="M21.084 23H1.917A1.917 1.917 0 0 1 0 21.083V4.073c0-1.06.858-1.917 1.917-1.917H5.03V.72a.719.719 0 1 1 1.438 0v1.437h4.312V.72a.719.719 0 1 1 1.438 0v1.437h4.312V.72a.718.718 0 1 1 1.438 0v1.437h3.115c1.058 0 1.916.857 1.916 1.916v17.01c0 1.06-.858 1.918-1.916 1.918zm.478-18.928a.48.48 0 0 0-.478-.478h-3.115V5.03a.718.718 0 1 1-1.438 0V3.594H12.22V5.03a.719.719 0 0 1-1.438 0V3.594H6.47V5.03a.719.719 0 1 1-1.438 0V3.594H1.917a.48.48 0 0 0-.48.478v17.01c0 .266.215.48.48.48h19.167a.48.48 0 0 0 .478-.48zm-6.468 11.74h2.875v2.156h-2.875zm0-3.593h2.875v2.156h-2.875zm0-3.594h2.875v2.156h-2.875zm-5.032 7.187h2.875v2.156h-2.875zm0-3.593h2.875v2.156h-2.875zm0-3.594h2.875v2.156h-2.875zm-5.03 7.187h2.874v2.156H5.031zm0-3.593h2.874v2.156H5.031zm0-3.594h2.874v2.156H5.031z"/></g></g></svg>