<svg xmlns="http://www.w3.org/2000/svg" width="59" height="59" viewBox="0 0 59 59"><g><g><path fill="#0174a6" d="M58.328 58.949a.983.983 0 0 1-1.244-.623l-.983-2.95c-.598-1.79-1.416-4.243-15.784-4.243v-.03c-.443-.084-1.337-.523-3.79-1.75l-6.044 5.182v3.481a.984.984 0 0 1-1.966 0v-3.48l-6.044-5.182-3.35 1.676a.985.985 0 0 1-.44.104h-.009c-.686 0-1.331.007-1.958.018v.12c1.692.44 2.95 1.967 2.95 3.794A3.937 3.937 0 0 1 15.733 59a3.937 3.937 0 0 1-3.933-3.933c0-1.827 1.258-3.354 2.95-3.794v-.067C4.158 51.62 3.437 53.766 2.9 55.377l-.984 2.95a.982.982 0 1 1-1.866-.622l.983-2.95c1.107-3.316 3.861-5.241 14.479-5.545.073-.017.142-.044.221-.044.06 0 .111.024.167.033.807-.02 1.653-.031 2.55-.032l3.727-1.865a.985.985 0 0 1 1.08.134l6.243 5.352 6.243-5.352a.987.987 0 0 1 1.08-.134s2.922 1.463 3.726 1.864c13.074.023 16.215 1.985 17.418 5.589l.983 2.95a.984.984 0 0 1-.622 1.244zm-42.595-5.85a1.969 1.969 0 0 0-1.967 1.967c0 1.084.882 1.967 1.967 1.967a1.969 1.969 0 0 0 1.967-1.967 1.969 1.969 0 0 0-1.967-1.967zm29.325-23.713c-.504 2.145-2.179 8.86-3.923 11.476-1.265 1.896-4.226 6.337-11.635 6.337-7.41 0-10.37-4.441-11.635-6.337-1.745-2.617-3.42-9.331-3.924-11.476A2.954 2.954 0 0 1 11.8 26.55v-3.934a.984.984 0 0 1 1.966 0v3.934c0 .542.442.983.984.983.461 0 .86.32.96.77.01.046.553 2.465 1.333 5.144.025-.002.047-.014.073-.014.072 0 7.34-.025 12.018-1.897a1 1 0 0 1 .732 0c4.686 1.875 11.96 1.897 12.033 1.897.02 0 .038.01.06.011a95.046 95.046 0 0 0 1.332-5.141c.099-.45.498-.77.96-.77a.985.985 0 0 0 .983-.984v-3.933a.984.984 0 0 1 1.966 0v3.933a2.954 2.954 0 0 1-2.142 2.837zM29.5 33.504c-4.307 1.607-10.103 1.851-11.858 1.889.575 1.761 1.222 3.422 1.86 4.377 1.181 1.773 3.64 5.462 9.998 5.462 6.357 0 8.817-3.689 9.999-5.462.637-.956 1.284-2.616 1.86-4.379-1.775-.037-7.563-.284-11.859-1.888zm6.883-7.938a.984.984 0 0 1 0 1.967H35.4a.983.983 0 0 1-1.967 0h-.983a.984.984 0 0 1 0-1.967zm-9.833 0a.984.984 0 0 1 0 1.967h-.984a.983.983 0 0 1-1.966 0h-.984a.984.984 0 0 1 0-1.967zm19.667-5.9H12.783a.984.984 0 0 1-.983-.983V8.85C11.8 3.804 15.604 0 20.65 0h18.683c4.78 0 7.867 3.474 7.867 8.85v9.833c0 .543-.44.983-.983.983zM45.233 8.85c0-3.328-1.55-6.884-5.9-6.884H20.65c-3.989 0-6.884 2.895-6.884 6.884v8.85h31.467zm-28.517.983h7.867c.034 0 .064.017.097.02A4.924 4.924 0 0 1 29.5 5.9c2.38 0 4.37 1.702 4.82 3.953.033-.003.062-.02.097-.02h7.866a.984.984 0 0 1 0 1.966h-7.866c-.035 0-.064-.016-.098-.02a4.923 4.923 0 0 1-4.82 3.954 4.924 4.924 0 0 1-4.819-3.953c-.033.003-.063.02-.097.02h-7.867a.984.984 0 0 1 0-1.967zM29.5 13.766a2.954 2.954 0 0 0 2.95-2.95 2.954 2.954 0 0 0-2.95-2.95 2.954 2.954 0 0 0-2.95 2.95 2.954 2.954 0 0 0 2.95 2.95z"/></g></g></svg>