<svg xmlns="http://www.w3.org/2000/svg" width="49" height="57" viewBox="0 0 49 57"><g><g><path fill="#0174a6" d="M49 14.43c0 2.4-.513 5.376-1.232 8.665-.568 2.602-2.83 5.461-7.154 7.355-1.306.572-3.568 1.055-4.13 1.468-.595.436-.907 1.816-1.074 2.487-.026.105-.057.318.105.318 1.02 0 1.85.826 1.85 1.84 0 1.014-.83 1.84-1.85 1.84h-1.271s-.144-.013-.188.121c-.205.612-.69 2.199-.69 2.199s-.125.252.099.252c.083 0 .159-.007.376-.007 1.02 0 1.76.825 1.76 1.84 0 1.014-.829 1.84-1.849 1.84h-1.62c-.198 0-.233.206-.233.206l-.68 2.039s-.117.32.071.32h.684c1.348 0 1.85.825 1.85 1.84 0 1.014-.83 1.84-1.85 1.84h-2s-.116-.02-.178.149c-.317.854-1.173 3.45-1.173 3.45C27.937 56.16 26.558 57 24.52 57h-.113c-2.038 0-3.416-.84-4.098-2.496l-.006-.018-1.142-3.398s-.04-.196-.29-.196h-1.846c-1.02 0-1.85-.825-1.85-1.84 0-1.014.83-1.84 1.85-1.84h.67c.162 0 .12-.132.12-.132l-.746-2.217s-.09-.215-.358-.215h-1.464c-1.02 0-1.849-.826-1.849-1.84 0-1.015.83-1.84 1.85-1.84.425 0 .371-.36.371-.36l-.64-1.967s-.076-.238-.308-.238h-1.187c-1.02 0-1.85-.826-1.85-1.84 0-1.014.83-1.84 1.85-1.84.184 0 .059-.437.059-.437s-.552-1.855-1.068-2.368c-.43-.428-2.824-.884-4.159-1.468-4.418-1.935-6.509-4.492-7.168-7.529C.447 19.693 0 16.851 0 14.431c0-3.757 1.337-7.316 3.764-10.02C6.318 1.567 9.834 0 13.664 0c3.02 0 6.226 1.764 8.567 3.053.774.425 1.928 1.122 2.268 1.122.342 0 1.502-.699 2.279-1.125C29.123 1.763 32.335 0 35.335 0c3.83 0 7.346 1.567 9.9 4.411C47.664 7.116 49 10.674 49 14.431zM27.372 50.95s.02-.057-.078-.057h-5.553c-.17 0-.149.122-.149.122l.88 2.623c.407.968 1.627 1.044 1.992 1.044s1.59-.076 1.995-1.05zm1.286-3.78l.836-2.453s.024-.068-.068-.068h-9.788c-.161 0-.148.094-.148.094l.792 2.347s.027.124.152.124h8.147c.054 0 .077-.043.077-.043zm0 0zm2.953-8.67s.034-.096-.091-.096c-3.49 0-10.11-.004-13.959-.004-.196 0-.146.153-.146.153l.776 2.334s.03.082.161.082h12.344c.093 0 .114-.088.114-.088zm1.362-4.002c.144-.435.46-1.38.618-1.81.047-.128-.156-.093-.156-.093-2.893.56-5.774.798-8.97.798-3.151 0-5.914-.218-8.774-.762 0 0-.27-.086-.195.197.135.51.47 1.402.643 1.762.06.124.185.124.185.124s12.227.01 16.318.01a.347.347 0 0 0 .33-.226zM46.702 14.43c0-5.97-4.252-12.145-11.367-12.145-2.408 0-5.32 1.598-7.446 2.765-.387.212-.69.393-.958.552-.307.182-.698.398-.698.674 0 .258 1.253.73 2.358 1.021 2.768.73 6.925.73 6.96 1.01.034.28-2.46.771-4.491.771a14.7 14.7 0 0 1-5.748-1.16c-.446-.189-.849-.42-1.292-.68a22.738 22.738 0 0 1-2.092-1.407c-.164-.123-.34-.257-.519-.394-.448-.343-.912-.697-1.238-.903-2.228-1.409-4.66-2.25-6.507-2.25C6.55 2.285 2.297 8.46 2.297 14.43c0 2.171.105 4.771.81 7.766 0 0 .354 1.23.565 1.74.655 1.586 2.86 3.235 5.57 4.422 1.493.654 3.185 1.205 5.03 1.638l.297.068c3.021.682 6.44 1.043 9.896 1.043 3.555 0 7.063-.38 10.145-1.1l.305-.073c1.747-.424 3.353-.954 4.773-1.576 2.766-1.212 4.844-2.69 5.454-4.332.163-.44.479-1.223.578-1.652.7-3.031.982-5.802.982-7.943z"/></g></g></svg>