<svg xmlns="http://www.w3.org/2000/svg" width="57" height="71" viewBox="0 0 57 71"><g><g><path fill="#7392b8" d="M56.998 63.019c0 .667-.362 1.445-.947 1.772-.26.144-6.452 3.549-16.34 5.276-3.14.549-6.875.933-11.053.933-7.936 0-17.473-1.503-27.587-6.22C.418 64.474 0 63.74 0 63.023c0-6.569 5.733-19.864 13.259-19.864h5.534v-1.434H5.49c-.506 0-.99-.062-1.341-.425-.35-.363-.537-.709-.515-1.212.024-.565.6-13.915 1.166-18.627C5.69 14.042 11.79 0 28.49 0c16.691 0 22.788 14.024 23.68 21.45.566 4.712 1.131 18.007 1.155 18.572.021.503-.165.919-.515 1.282s-.835.422-1.342.422H38.286v1.434h5.454c7.527 0 13.258 13.29 13.258 19.859zm-28.46-22.92c4.37 0 8.258-5.224 10.258-9.698a1.865 1.865 0 0 1 2.279-1.004c.33-.215 1.051-.959 1.551-2.365.45-1.267.423-2.239.322-2.712l-19.106-.027a1.858 1.858 0 0 1-1.767-1.28l-.527-1.63-.617 1.692a1.858 1.858 0 0 1-1.74 1.218l-5.139.018c-.101.474-.13 1.45.321 2.721.496 1.395 1.21 2.137 1.543 2.36a1.862 1.862 0 0 1 2.353.98c2 4.487 5.89 9.726 10.27 9.726zm-9.744-1.96v-.107c-1.204-1.526-2.382-3.219-3.237-4.924-1.856-.278-3.721-2.111-4.69-4.837-1.137-3.206-.594-6.181 1.235-7.27.31-.278.868-.314 1.55-.314h4.226l2.025-5.33c.267-.732.967-.886 1.748-.886h.034c.794 0 1.486.208 1.73.96l1.773 5.201 18.53.012c.21 0 .395.028.593.098 2.254.791 2.97 4.023 1.727 7.522-.953 2.684-2.77 4.506-4.594 4.827-.816 1.629-1.954 3.499-3.157 4.972v.077h11.24c-.182-3.826-.623-12.802-1.048-16.333-.757-6.3-5.908-18.142-19.989-18.142-14.09 0-19.243 11.856-19.999 18.15-.424 3.533-.872 12.5-1.056 16.325zm1.652 8.608H13.26c-.264 0-.536.25-.814.328.503.74 1.75 1.859 3.867 2.662 3.226 1.223 7.554 1.87 12.187 1.87 4.633 0 8.961-.73 12.187-1.953 2.117-.804 3.364-1.826 3.867-2.566-.278-.077-.55-.342-.814-.342h-6.938c-1.027 0-2.125-.383-2.125-1.403V41.5c-1.925 1.409-3.893 2.291-6.222 2.291-2.262 0-4.126-.833-6.051-2.17v3.722c0 1.02-.931 1.403-1.958 1.403zM53.22 62.09c-.283-2.662-1.496-6.248-3.142-9.164-.786-1.393-1.624-2.565-2.468-3.482-2.704 3.89-10.947 5.91-19.11 5.91-8.161 0-16.405-2.02-19.109-5.91-.844.917-1.681 2.09-2.467 3.482-1.636 2.897-2.843 6.454-3.136 9.11 14.111 6.253 26.926 5.873 35.28 4.414 7.042-1.23 12.101-3.382 14.152-4.36z"/></g></g></svg>