<svg xmlns="http://www.w3.org/2000/svg" width="41" height="31" viewBox="0 0 41 31"><g><g><path fill="#7492b8" d="M41 18.076c0 1.604-.873 2.99-2.303 3.622-.11.04-.1.114-.102.147-.129 2.463-2.185 4.428-4.694 4.428-1.146 0-2.135-.332-2.979-1.058-.08-.062-.13-.01-.142.013-.638 1.266-1.263 2.339-1.885 3.24-1.17 1.697-2.183 2.522-3.094 2.522-.414 0-1.17-.173-1.583-1.328-.344-.96-.645-2.03-.965-3.192-.004-.015-.034-.052-.09-.017-.798.64-1.715.934-2.756.934a4.535 4.535 0 0 1-1.634-.303c-.028-.01-.142-.028-.222.036-.993.963-2.16 1.424-3.55 1.424-.103 0-.133 0-.235-.005-.085-.008-.086.036-.092.056-.127.4-.246.751-.362 1.07C13.889 30.828 13.126 31 12.709 31c-.915 0-1.928-.812-3.097-2.484-.78-1.116-1.596-2.566-2.384-4.232-.008-.016-.023-.042-.112-.042-.134.011-.18.011-.316.011a4.769 4.769 0 0 1-3.384-1.393 4.73 4.73 0 0 1-1.399-3.523c.001-.017.009-.057-.053-.106a3.647 3.647 0 0 1-.706-.548 4.269 4.269 0 0 1 0-6.056 4.288 4.288 0 0 1 1.931-1.109c.056-.015.17-.135.17-.365-.07-.668-.105-.976-.105-1.558 0-2.498.89-4.864 2.505-6.661A8.75 8.75 0 0 1 12.347 0c2.01 0 4.144 1.173 5.701 2.03.514.283 1.282.745 1.508.745.226 0 .997-.463 1.513-.746 1.562-.857 3.7-2.03 5.695-2.03a8.75 8.75 0 0 1 6.589 2.935c1.615 1.797 2.505 4.163 2.505 6.661 0 1.347-.201 2.97-.585 4.748-.008.035.019.104.12.042.531-.249.973-.318 1.573-.318 2.224 0 4.034 1.799 4.034 4.01zm-32.342-2.29c.046-.05.094-.1.143-.15l.023-.023c.067-.067.135-.13.205-.191l.048-.042c.06-.051.12-.101.182-.149l.033-.026c.457-.35.968-.61 1.514-.773.022-.007.072-.027.03-.118-.087-.254-.194-.388-.389-.583a1.777 1.777 0 0 0-1.26-.518c-1.538 0-1.885 1.913-2.215 1.935-.33.022-.8-1.849-2.668-1.849-.633 0-1.228.245-1.675.69a2.348 2.348 0 0 0 0 3.332c.68.676 1.448.642 1.544.82.096.176-.796 1.956.614 3.357a2.836 2.836 0 0 0 2.013.828c.587 0 1.619.07 1.619-.5 0-.289-.985-1.866-.985-2.879 0-1.093.373-2.13 1.058-2.968l.008-.01c.041-.05.085-.1.129-.15l.029-.032zm4.493 12.538c.016-.045.013-.109-.083-.142-.713-.258-1.251-.627-1.803-1.176-1.01-1.004-1.556-2.262-1.548-3.652-.004-.05-.041-.057-.05-.05-.3.226-.563.36-.905.51-.051.023-.027.07-.02.085.711 1.472 1.453 2.78 2.13 3.747 1.143 1.636 1.725 1.854 1.822 1.827.047-.013.11-.147.176-.326.096-.264.164-.479.281-.823zm9.832-5.423c0-.684-.268-1.327-.755-1.81-1.15-1.143-2.898-.52-3.084-.81-.185-.291 1.737-1.943.071-3.598a2.134 2.134 0 0 0-1.514-.624c-1.701 0-2.19 2.082-2.52 2.104-.33.022-1.007-2.006-3.002-2.006-.042 0-.083.002-.125.003l-.062.005a2.814 2.814 0 0 0-1.508.559l-.016.013a3.573 3.573 0 0 0-.081.064l-.04.033-.057.05a2.677 2.677 0 0 0-.083.08l-.012.01-.025.026c-.025.025-.05.051-.073.077l-.022.026a2.39 2.39 0 0 0-.08.092c-.829 1.02-1.142 2.512-.068 3.58.737.732 1.854.889 1.958 1.061.174.287-.97 2.098.75 3.808a3.335 3.335 0 0 0 2.366.974c.894 0 1.734-.346 2.366-.974.724-.72.642-1.059.866-1.098.225-.04.803.915 2.174.915.688 0 1.335-.266 1.821-.75a2.536 2.536 0 0 0 .755-1.81zm6.23 2.02c.011-.02.022-.07-.077-.069-2.215-.133-3.866-1.957-3.866-4.192 0-2.071 1.513-3.797 3.498-4.145a3.656 3.656 0 0 1 3.645-3.312c.515 0 .9.062 1.35.257.117.078.129-.037.137-.078.278-1.427.424-2.72.424-3.787 0-3.967-2.828-8.07-7.56-8.07-1.601 0-3.538 1.062-4.953 1.838-.257.14-.458.26-.637.366-.202.12-.47.277-.46.339.025.168.832.591 1.564.784 1.843.485 4.643.426 4.643.672 0 .191-1.65.517-3 .517a9.785 9.785 0 0 1-3.826-.772c-.32-.135-.62-.31-.86-.452a15.047 15.047 0 0 1-1.392-.936c-.11-.082-.227-.171-.346-.262-.298-.228-.606-.464-.822-.6-1.482-.936-3.1-1.495-4.328-1.495-4.732 0-7.56 4.104-7.56 8.071 0 .556.037.856.11 1.51 0 .278.123.327.184.338.616.11 1.136.292 1.648.653.071.07.119.011.149-.012a3.706 3.706 0 0 1 2.309-.798 3.708 3.708 0 0 1 3.635 2.917c.006.025.036.093.149.094.785.108 1.39.386 2.025.854a4.064 4.064 0 0 1 2.704-1.018c1.09 0 2.115.422 2.886 1.188a4.029 4.029 0 0 1 1.191 3.078c0 .132.052.273.223.304.625.113 1.14.57 1.598 1.025a4.444 4.444 0 0 1 1.323 3.173c0 .702-.163 1.38-.468 1.991-.01.02-.029.054-.007.137l.181.66c.348 1.266.677 2.46 1.035 3.462.064.178.119.297.163.312.18.06.802-.403 1.805-1.857.506-.733 1.044-1.647 1.583-2.685zm9.849-6.844c0-1.149-.94-2.084-2.096-2.084-1.553 0-2.097 1.546-2.434 1.47-.338-.075.041-2.333-2.12-2.333-.948 0-1.72.767-1.72 1.71 0 1.06.55 1.414.331 1.662-.218.248-.552-.124-1.52-.124a2.291 2.291 0 0 0-2.295 2.282 2.291 2.291 0 0 0 2.295 2.282c.314 0 .63-.035.903-.183.177-.097.55-.375.743-.317.194.058.352.493.446.67.436.82 1.376 1.235 2.306 1.235a2.757 2.757 0 0 0 2.762-2.746c0-.132.004-.27-.03-.402-.056-.22-.262-.712-.132-.898.131-.186.548-.043.775-.066.982-.1 1.786-1.176 1.786-2.158z"/></g></g></svg>