<svg xmlns="http://www.w3.org/2000/svg" width="25" height="30" viewBox="0 0 25 30"><g><g><path fill="#7392b8" d="M24.949 14.21c-.013.027-.032.05-.05.073-.02.03-.04.06-.067.084-.005.005-.008.012-.014.017-.023.02-.05.03-.076.044-.02.012-.04.026-.062.035a.491.491 0 0 1-.381-.007c-.017-.007-.029-.02-.044-.03a.507.507 0 0 1-.123-.093c-.005-.006-.012-.008-.017-.014C23.41 13.47 22.48 13 21.5 13c-.981 0-1.91.47-2.616 1.32-.01.014-.026.02-.038.03-.01.012-.016.026-.028.036-.015.012-.034.018-.05.028-.023.015-.046.03-.071.04a.51.51 0 0 1-.1.03c-.025.005-.049.012-.074.013-.008 0-.015.004-.023.004-.018 0-.035-.01-.053-.012a.475.475 0 0 1-.125-.027c-.027-.01-.05-.026-.076-.041-.021-.013-.045-.019-.065-.035-.014-.011-.02-.027-.032-.039-.01-.01-.025-.015-.034-.027C17.41 13.47 16.481 13 15.5 13c-.93 0-1.81.426-2.5 1.194V27.5c0 1.378-1.122 2.5-2.5 2.5A2.503 2.503 0 0 1 8 27.5a.5.5 0 1 1 1 0c0 .827.673 1.5 1.5 1.5s1.5-.673 1.5-1.5V14.193C11.31 13.425 10.43 13 9.5 13c-.981 0-1.91.468-2.616 1.319-.01.013-.026.019-.037.03-.012.011-.017.025-.029.035-.016.013-.034.019-.05.03a.44.44 0 0 1-.071.04.467.467 0 0 1-.1.03c-.025.004-.049.01-.074.012-.008 0-.015.004-.023.004-.018 0-.035-.01-.054-.012a.458.458 0 0 1-.124-.027c-.027-.01-.05-.025-.076-.04-.021-.014-.045-.02-.065-.036-.014-.011-.02-.027-.032-.039-.01-.01-.025-.015-.034-.027C5.41 13.47 4.481 13 3.5 13c-.981 0-1.91.47-2.615 1.32-.006.007-.013.01-.019.015-.023.025-.05.044-.078.064-.026.018-.05.04-.078.052-.025.012-.052.016-.079.024-.037.01-.072.02-.11.022-.007 0-.014.004-.021.004-.022 0-.041-.01-.063-.012-.035-.005-.071-.009-.106-.022-.034-.012-.062-.03-.091-.049-.019-.012-.041-.017-.059-.032-.006-.005-.009-.012-.014-.017-.027-.025-.046-.054-.068-.084-.017-.024-.036-.046-.049-.072-.012-.027-.017-.057-.025-.086-.009-.035-.019-.068-.02-.104C.003 14.014 0 14.008 0 14 0 7.275 5.338 1.776 12 1.512V.5a.5.5 0 1 1 1 0v1.012C19.661 1.776 25 7.275 25 14c0 .008-.004.014-.005.022-.001.036-.012.069-.02.103-.008.03-.013.06-.026.086zm-1.012-1.408C23.337 7.022 18.437 2.5 12.5 2.5 6.563 2.5 1.663 7.022 1.062 12.802 1.791 12.282 2.625 12 3.5 12c1.109 0 2.156.447 3 1.267.844-.82 1.891-1.267 3-1.267s2.156.447 3 1.267c.844-.82 1.891-1.267 3-1.267s2.156.447 3 1.267c.844-.82 1.89-1.267 3-1.267.875 0 1.709.283 2.437.802z"/></g></g></svg>